<?xml version="1.0" encoding="utf-8" standalone="no"?>
<!DOCTYPE svg PUBLIC "-//W3C//DTD SVG 1.1//EN"
  "http://www.w3.org/Graphics/SVG/1.1/DTD/svg11.dtd">
<svg xmlns:xlink="http://www.w3.org/1999/xlink" width="1382.4pt" height="684.72pt" viewBox="0 0 1382.4 684.72" xmlns="http://www.w3.org/2000/svg" version="1.1">
 <metadata>
  <rdf:RDF xmlns:dc="http://purl.org/dc/elements/1.1/" xmlns:cc="http://creativecommons.org/ns#" xmlns:rdf="http://www.w3.org/1999/02/22-rdf-syntax-ns#">
   <cc:Work>
    <dc:type rdf:resource="http://purl.org/dc/dcmitype/StillImage"/>
    <dc:date>2023-07-26T12:49:11.929755</dc:date>
    <dc:format>image/svg+xml</dc:format>
    <dc:creator>
     <cc:Agent>
      <dc:title>Matplotlib v3.5.2, https://matplotlib.org/</dc:title>
     </cc:Agent>
    </dc:creator>
   </cc:Work>
  </rdf:RDF>
 </metadata>
 <defs>
  <style type="text/css">*{stroke-linejoin: round; stroke-linecap: butt}</style>
 </defs>
 <g id="figure_1">
  <g id="patch_1">
   <path d="M 0 684.72 
L 1382.4 684.72 
L 1382.4 0 
L 0 0 
z
" style="fill: #ffffff"/>
  </g>
  <g id="axes_1">
   <g id="patch_2">
    <path d="M 172.8 609.4008 
L 1244.16 609.4008 
L 1244.16 82.1664 
L 172.8 82.1664 
z
" style="fill: #ffffff"/>
   </g>
   <g id="PathCollection_1">
    <defs>
     <path id="m7a5f70de90" d="M 0 1.581139 
C 0.419323 1.581139 0.821528 1.41454 1.118034 1.118034 
C 1.41454 0.821528 1.581139 0.419323 1.581139 0 
C 1.581139 -0.419323 1.41454 -0.821528 1.118034 -1.118034 
C 0.821528 -1.41454 0.419323 -1.581139 0 -1.581139 
C -0.419323 -1.581139 -0.821528 -1.41454 -1.118034 -1.118034 
C -1.41454 -0.821528 -1.581139 -0.419323 -1.581139 0 
C -1.581139 0.419323 -1.41454 0.821528 -1.118034 1.118034 
C -0.821528 1.41454 -0.419323 1.581139 0 1.581139 
z
" style="stroke: #800080"/>
    </defs>
    <g clip-path="url(#pc4743e3971)">
     <use xlink:href="#m7a5f70de90" x="283.89249" y="581.991031" style="fill: #800080; stroke: #800080"/>
     <use xlink:href="#m7a5f70de90" x="348.877431" y="581.991031" style="fill: #800080; stroke: #800080"/>
     <use xlink:href="#m7a5f70de90" x="394.984981" y="580.27792" style="fill: #800080; stroke: #800080"/>
     <use xlink:href="#m7a5f70de90" x="430.748774" y="581.991031" style="fill: #800080; stroke: #800080"/>
     <use xlink:href="#m7a5f70de90" x="459.969921" y="581.991031" style="fill: #800080; stroke: #800080"/>
     <use xlink:href="#m7a5f70de90" x="484.676049" y="580.27792" style="fill: #800080; stroke: #800080"/>
     <use xlink:href="#m7a5f70de90" x="506.077471" y="581.991031" style="fill: #800080; stroke: #800080"/>
     <use xlink:href="#m7a5f70de90" x="524.954862" y="580.27792" style="fill: #800080; stroke: #800080"/>
     <use xlink:href="#m7a5f70de90" x="541.841265" y="580.27792" style="fill: #800080; stroke: #800080"/>
     <use xlink:href="#m7a5f70de90" x="652.933755" y="568.286146" style="fill: #800080; stroke: #800080"/>
     <use xlink:href="#m7a5f70de90" x="717.918696" y="523.74527" style="fill: #800080; stroke: #800080"/>
     <use xlink:href="#m7a5f70de90" x="764.026245" y="464.987468" style="fill: #800080; stroke: #800080"/>
     <use xlink:href="#m7a5f70de90" x="799.790039" y="437.600283" style="fill: #800080; stroke: #800080"/>
     <use xlink:href="#m7a5f70de90" x="829.011186" y="412.94358" style="fill: #800080; stroke: #800080"/>
     <use xlink:href="#m7a5f70de90" x="853.717314" y="391.321296" style="fill: #800080; stroke: #800080"/>
     <use xlink:href="#m7a5f70de90" x="875.118735" y="376.157776" style="fill: #800080; stroke: #800080"/>
     <use xlink:href="#m7a5f70de90" x="893.996127" y="359.497384" style="fill: #800080; stroke: #800080"/>
     <use xlink:href="#m7a5f70de90" x="910.882529" y="346.738335" style="fill: #800080; stroke: #800080"/>
     <use xlink:href="#m7a5f70de90" x="1021.975019" y="258.23269" style="fill: #800080; stroke: #800080"/>
     <use xlink:href="#m7a5f70de90" x="1086.95996" y="206.090934" style="fill: #800080; stroke: #800080"/>
     <use xlink:href="#m7a5f70de90" x="1133.06751" y="168.821221" style="fill: #800080; stroke: #800080"/>
     <use xlink:href="#m7a5f70de90" x="1168.831303" y="139.413682" style="fill: #800080; stroke: #800080"/>
     <use xlink:href="#m7a5f70de90" x="1198.052451" y="115.804236" style="fill: #800080; stroke: #800080"/>
    </g>
   </g>
   <g id="PolyCollection_1">
    <defs>
     <path id="md3c2d144a3" d="M 283.89249 -102.728969 
L 283.89249 -102.728969 
L 348.877431 -102.728969 
L 394.984981 -102.728969 
L 430.748774 -102.728969 
L 459.969921 -102.728969 
L 484.676049 -102.728969 
L 506.077471 -102.728969 
L 524.954862 -102.728969 
L 541.841265 -102.728969 
L 652.933755 -102.728969 
L 717.918696 -144.189742 
L 764.026245 -210.198394 
L 799.790039 -242.977768 
L 829.011186 -267.557861 
L 853.717314 -291.750267 
L 875.118735 -306.592819 
L 893.996127 -323.808902 
L 910.882529 -336.354067 
L 1021.975019 -424.359227 
L 1086.95996 -477.573208 
L 1133.06751 -515.571873 
L 1168.831303 -544.466637 
L 1198.052451 -568.707639 
L 1198.052451 -569.122883 
L 1198.052451 -569.122883 
L 1168.831303 -546.129862 
L 1133.06751 -516.22321 
L 1086.95996 -479.659534 
L 1021.975019 -428.514696 
L 910.882529 -339.549701 
L 893.996127 -326.591178 
L 875.118735 -310.445086 
L 853.717314 -294.986074 
L 829.011186 -275.616666 
L 799.790039 -250.896384 
L 764.026245 -226.627451 
L 717.918696 -177.759717 
L 652.933755 -130.138739 
L 541.841265 -114.720744 
L 524.954862 -114.720744 
L 506.077471 -102.728969 
L 484.676049 -114.720744 
L 459.969921 -102.728969 
L 430.748774 -102.728969 
L 394.984981 -114.720744 
L 348.877431 -102.728969 
L 283.89249 -102.728969 
z
" style="stroke: #800080; stroke-opacity: 0.2"/>
    </defs>
    <g clip-path="url(#pc4743e3971)">
     <use xlink:href="#md3c2d144a3" x="0" y="684.72" style="fill: #800080; fill-opacity: 0.2; stroke: #800080; stroke-opacity: 0.2"/>
    </g>
   </g>
   <g id="PathCollection_2">
    <defs>
     <path id="mabafb460eb" d="M 0 1.581139 
C 0.419323 1.581139 0.821528 1.41454 1.118034 1.118034 
C 1.41454 0.821528 1.581139 0.419323 1.581139 0 
C 1.581139 -0.419323 1.41454 -0.821528 1.118034 -1.118034 
C 0.821528 -1.41454 0.419323 -1.581139 0 -1.581139 
C -0.419323 -1.581139 -0.821528 -1.41454 -1.118034 -1.118034 
C -1.41454 -0.821528 -1.581139 -0.419323 -1.581139 0 
C -1.581139 0.419323 -1.41454 0.821528 -1.118034 1.118034 
C -0.821528 1.41454 -0.419323 1.581139 0 1.581139 
z
" style="stroke: #ffa500"/>
    </defs>
    <g clip-path="url(#pc4743e3971)">
     <use xlink:href="#mabafb460eb" x="283.89249" y="581.991031" style="fill: #ffa500; stroke: #ffa500"/>
     <use xlink:href="#mabafb460eb" x="348.877431" y="581.991031" style="fill: #ffa500; stroke: #ffa500"/>
     <use xlink:href="#mabafb460eb" x="394.984981" y="581.991031" style="fill: #ffa500; stroke: #ffa500"/>
     <use xlink:href="#mabafb460eb" x="430.748774" y="581.991031" style="fill: #ffa500; stroke: #ffa500"/>
     <use xlink:href="#mabafb460eb" x="459.969921" y="580.27792" style="fill: #ffa500; stroke: #ffa500"/>
     <use xlink:href="#mabafb460eb" x="484.676049" y="580.27792" style="fill: #ffa500; stroke: #ffa500"/>
     <use xlink:href="#mabafb460eb" x="506.077471" y="578.564809" style="fill: #ffa500; stroke: #ffa500"/>
     <use xlink:href="#mabafb460eb" x="524.954862" y="578.564809" style="fill: #ffa500; stroke: #ffa500"/>
     <use xlink:href="#mabafb460eb" x="541.841265" y="576.851699" style="fill: #ffa500; stroke: #ffa500"/>
     <use xlink:href="#mabafb460eb" x="652.933755" y="568.286146" style="fill: #ffa500; stroke: #ffa500"/>
     <use xlink:href="#mabafb460eb" x="717.918696" y="549.441929" style="fill: #ffa500; stroke: #ffa500"/>
     <use xlink:href="#mabafb460eb" x="764.026245" y="537.450155" style="fill: #ffa500; stroke: #ffa500"/>
     <use xlink:href="#mabafb460eb" x="799.790039" y="523.74527" style="fill: #ffa500; stroke: #ffa500"/>
     <use xlink:href="#mabafb460eb" x="829.011186" y="510.040386" style="fill: #ffa500; stroke: #ffa500"/>
     <use xlink:href="#mabafb460eb" x="853.717314" y="479.204395" style="fill: #ffa500; stroke: #ffa500"/>
     <use xlink:href="#mabafb460eb" x="875.118735" y="471.687535" style="fill: #ffa500; stroke: #ffa500"/>
     <use xlink:href="#mabafb460eb" x="893.996127" y="455.878342" style="fill: #ffa500; stroke: #ffa500"/>
     <use xlink:href="#mabafb460eb" x="910.882529" y="454.53203" style="fill: #ffa500; stroke: #ffa500"/>
     <use xlink:href="#mabafb460eb" x="1021.975019" y="380.093468" style="fill: #ffa500; stroke: #ffa500"/>
     <use xlink:href="#mabafb460eb" x="1086.95996" y="335.742907" style="fill: #ffa500; stroke: #ffa500"/>
     <use xlink:href="#mabafb460eb" x="1133.06751" y="297.217441" style="fill: #ffa500; stroke: #ffa500"/>
     <use xlink:href="#mabafb460eb" x="1168.831303" y="264.579875" style="fill: #ffa500; stroke: #ffa500"/>
     <use xlink:href="#mabafb460eb" x="1198.052451" y="240.285669" style="fill: #ffa500; stroke: #ffa500"/>
    </g>
   </g>
   <g id="PolyCollection_2">
    <defs>
     <path id="m399a388d1d" d="M 283.89249 -102.728969 
L 283.89249 -102.728969 
L 348.877431 -102.728969 
L 394.984981 -102.728969 
L 430.748774 -102.728969 
L 459.969921 -102.728969 
L 484.676049 -102.728969 
L 506.077471 -102.728969 
L 524.954862 -102.728969 
L 541.841265 -102.728969 
L 652.933755 -102.728969 
L 717.918696 -106.81774 
L 764.026245 -115.868009 
L 799.790039 -102.728969 
L 829.011186 -108.242721 
L 853.717314 -135.298965 
L 875.118735 -123.108695 
L 893.996127 -217.253895 
L 910.882529 -118.732115 
L 1021.975019 -264.976976 
L 1086.95996 -304.684223 
L 1133.06751 -346.29984 
L 1168.831303 -399.848711 
L 1198.052451 -437.106972 
L 1198.052451 -450.689867 
L 1198.052451 -450.689867 
L 1168.831303 -433.855104 
L 1133.06751 -408.11475 
L 1086.95996 -370.288194 
L 1021.975019 -324.863263 
L 910.882529 -257.777291 
L 893.996127 -237.953695 
L 875.118735 -238.623875 
L 853.717314 -231.914508 
L 829.011186 -222.347226 
L 799.790039 -215.511604 
L 764.026245 -178.671681 
L 717.918696 -163.738401 
L 652.933755 -142.073346 
L 541.841265 -123.569219 
L 524.954862 -119.860075 
L 506.077471 -119.860075 
L 484.676049 -114.720744 
L 459.969921 -114.720744 
L 430.748774 -102.728969 
L 394.984981 -102.728969 
L 348.877431 -102.728969 
L 283.89249 -102.728969 
z
" style="stroke: #ffa500; stroke-opacity: 0.2"/>
    </defs>
    <g clip-path="url(#pc4743e3971)">
     <use xlink:href="#m399a388d1d" x="0" y="684.72" style="fill: #ffa500; fill-opacity: 0.2; stroke: #ffa500; stroke-opacity: 0.2"/>
    </g>
   </g>
   <g id="PathCollection_3">
    <defs>
     <path id="m6ab933ce72" d="M 0 1.581139 
C 0.419323 1.581139 0.821528 1.41454 1.118034 1.118034 
C 1.41454 0.821528 1.581139 0.419323 1.581139 0 
C 1.581139 -0.419323 1.41454 -0.821528 1.118034 -1.118034 
C 0.821528 -1.41454 0.419323 -1.581139 0 -1.581139 
C -0.419323 -1.581139 -0.821528 -1.41454 -1.118034 -1.118034 
C -1.41454 -0.821528 -1.581139 -0.419323 -1.581139 0 
C -1.581139 0.419323 -1.41454 0.821528 -1.118034 1.118034 
C -0.821528 1.41454 -0.419323 1.581139 0 1.581139 
z
" style="stroke: #ff0000"/>
    </defs>
    <g clip-path="url(#pc4743e3971)">
     <use xlink:href="#m6ab933ce72" x="283.89249" y="581.991031" style="fill: #ff0000; stroke: #ff0000"/>
     <use xlink:href="#m6ab933ce72" x="348.877431" y="581.991031" style="fill: #ff0000; stroke: #ff0000"/>
     <use xlink:href="#m6ab933ce72" x="394.984981" y="581.991031" style="fill: #ff0000; stroke: #ff0000"/>
     <use xlink:href="#m6ab933ce72" x="430.748774" y="581.991031" style="fill: #ff0000; stroke: #ff0000"/>
     <use xlink:href="#m6ab933ce72" x="459.969921" y="581.991031" style="fill: #ff0000; stroke: #ff0000"/>
     <use xlink:href="#m6ab933ce72" x="484.676049" y="581.991031" style="fill: #ff0000; stroke: #ff0000"/>
     <use xlink:href="#m6ab933ce72" x="506.077471" y="581.991031" style="fill: #ff0000; stroke: #ff0000"/>
     <use xlink:href="#m6ab933ce72" x="524.954862" y="581.991031" style="fill: #ff0000; stroke: #ff0000"/>
     <use xlink:href="#m6ab933ce72" x="541.841265" y="581.991031" style="fill: #ff0000; stroke: #ff0000"/>
     <use xlink:href="#m6ab933ce72" x="652.933755" y="581.991031" style="fill: #ff0000; stroke: #ff0000"/>
     <use xlink:href="#m6ab933ce72" x="717.918696" y="581.991031" style="fill: #ff0000; stroke: #ff0000"/>
     <use xlink:href="#m6ab933ce72" x="764.026245" y="581.991031" style="fill: #ff0000; stroke: #ff0000"/>
     <use xlink:href="#m6ab933ce72" x="799.790039" y="581.991031" style="fill: #ff0000; stroke: #ff0000"/>
     <use xlink:href="#m6ab933ce72" x="829.011186" y="576.851699" style="fill: #ff0000; stroke: #ff0000"/>
     <use xlink:href="#m6ab933ce72" x="853.717314" y="578.564809" style="fill: #ff0000; stroke: #ff0000"/>
     <use xlink:href="#m6ab933ce72" x="875.118735" y="578.564809" style="fill: #ff0000; stroke: #ff0000"/>
     <use xlink:href="#m6ab933ce72" x="893.996127" y="575.138588" style="fill: #ff0000; stroke: #ff0000"/>
     <use xlink:href="#m6ab933ce72" x="910.882529" y="569.999256" style="fill: #ff0000; stroke: #ff0000"/>
     <use xlink:href="#m6ab933ce72" x="1021.975019" y="469.75394" style="fill: #ff0000; stroke: #ff0000"/>
     <use xlink:href="#m6ab933ce72" x="1086.95996" y="431.507525" style="fill: #ff0000; stroke: #ff0000"/>
     <use xlink:href="#m6ab933ce72" x="1133.06751" y="392.034698" style="fill: #ff0000; stroke: #ff0000"/>
     <use xlink:href="#m6ab933ce72" x="1168.831303" y="358.124801" style="fill: #ff0000; stroke: #ff0000"/>
     <use xlink:href="#m6ab933ce72" x="1198.052451" y="333.666524" style="fill: #ff0000; stroke: #ff0000"/>
    </g>
   </g>
   <g id="PolyCollection_3">
    <defs>
     <path id="m54f1ce7b78" d="M 283.89249 -102.728969 
L 283.89249 -102.728969 
L 348.877431 -102.728969 
L 394.984981 -102.728969 
L 430.748774 -102.728969 
L 459.969921 -102.728969 
L 484.676049 -102.728969 
L 506.077471 -102.728969 
L 524.954862 -102.728969 
L 541.841265 -102.728969 
L 652.933755 -102.728969 
L 717.918696 -102.728969 
L 764.026245 -102.728969 
L 799.790039 -102.728969 
L 829.011186 -102.728969 
L 853.717314 -102.728969 
L 875.118735 -102.728969 
L 893.996127 -102.728969 
L 910.882529 -102.728969 
L 1021.975019 -139.897735 
L 1086.95996 -105.320766 
L 1133.06751 -225.057739 
L 1168.831303 -306.047138 
L 1198.052451 -343.911121 
L 1198.052451 -357.173757 
L 1198.052451 -357.173757 
L 1168.831303 -340.425742 
L 1133.06751 -317.722458 
L 1086.95996 -282.720929 
L 1021.975019 -237.222248 
L 910.882529 -130.421662 
L 893.996127 -126.366399 
L 875.118735 -119.860075 
L 853.717314 -119.860075 
L 829.011186 -138.704292 
L 799.790039 -102.728969 
L 764.026245 -102.728969 
L 717.918696 -102.728969 
L 652.933755 -102.728969 
L 541.841265 -102.728969 
L 524.954862 -102.728969 
L 506.077471 -102.728969 
L 484.676049 -102.728969 
L 459.969921 -102.728969 
L 430.748774 -102.728969 
L 394.984981 -102.728969 
L 348.877431 -102.728969 
L 283.89249 -102.728969 
z
" style="stroke: #ff0000; stroke-opacity: 0.2"/>
    </defs>
    <g clip-path="url(#pc4743e3971)">
     <use xlink:href="#m54f1ce7b78" x="0" y="684.72" style="fill: #ff0000; fill-opacity: 0.2; stroke: #ff0000; stroke-opacity: 0.2"/>
    </g>
   </g>
   <g id="PathCollection_4">
    <defs>
     <path id="mf3a16f23e5" d="M 0 1.581139 
C 0.419323 1.581139 0.821528 1.41454 1.118034 1.118034 
C 1.41454 0.821528 1.581139 0.419323 1.581139 0 
C 1.581139 -0.419323 1.41454 -0.821528 1.118034 -1.118034 
C 0.821528 -1.41454 0.419323 -1.581139 0 -1.581139 
C -0.419323 -1.581139 -0.821528 -1.41454 -1.118034 -1.118034 
C -1.41454 -0.821528 -1.581139 -0.419323 -1.581139 0 
C -1.581139 0.419323 -1.41454 0.821528 -1.118034 1.118034 
C -0.821528 1.41454 -0.419323 1.581139 0 1.581139 
z
" style="stroke: #0000ff"/>
    </defs>
    <g clip-path="url(#pc4743e3971)">
     <use xlink:href="#mf3a16f23e5" x="283.89249" y="581.991031" style="fill: #0000ff; stroke: #0000ff"/>
     <use xlink:href="#mf3a16f23e5" x="348.877431" y="581.991031" style="fill: #0000ff; stroke: #0000ff"/>
     <use xlink:href="#mf3a16f23e5" x="394.984981" y="581.991031" style="fill: #0000ff; stroke: #0000ff"/>
     <use xlink:href="#mf3a16f23e5" x="430.748774" y="581.991031" style="fill: #0000ff; stroke: #0000ff"/>
     <use xlink:href="#mf3a16f23e5" x="459.969921" y="580.27792" style="fill: #0000ff; stroke: #0000ff"/>
     <use xlink:href="#mf3a16f23e5" x="484.676049" y="581.991031" style="fill: #0000ff; stroke: #0000ff"/>
     <use xlink:href="#mf3a16f23e5" x="506.077471" y="581.991031" style="fill: #0000ff; stroke: #0000ff"/>
     <use xlink:href="#mf3a16f23e5" x="524.954862" y="580.27792" style="fill: #0000ff; stroke: #0000ff"/>
     <use xlink:href="#mf3a16f23e5" x="541.841265" y="581.991031" style="fill: #0000ff; stroke: #0000ff"/>
     <use xlink:href="#mf3a16f23e5" x="652.933755" y="581.991031" style="fill: #0000ff; stroke: #0000ff"/>
     <use xlink:href="#mf3a16f23e5" x="717.918696" y="578.564809" style="fill: #0000ff; stroke: #0000ff"/>
     <use xlink:href="#mf3a16f23e5" x="764.026245" y="580.27792" style="fill: #0000ff; stroke: #0000ff"/>
     <use xlink:href="#mf3a16f23e5" x="799.790039" y="576.851699" style="fill: #0000ff; stroke: #0000ff"/>
     <use xlink:href="#mf3a16f23e5" x="829.011186" y="576.851699" style="fill: #0000ff; stroke: #0000ff"/>
     <use xlink:href="#mf3a16f23e5" x="853.717314" y="575.138588" style="fill: #0000ff; stroke: #0000ff"/>
     <use xlink:href="#mf3a16f23e5" x="875.118735" y="573.425478" style="fill: #0000ff; stroke: #0000ff"/>
     <use xlink:href="#mf3a16f23e5" x="893.996127" y="569.999256" style="fill: #0000ff; stroke: #0000ff"/>
     <use xlink:href="#mf3a16f23e5" x="910.882529" y="568.286146" style="fill: #0000ff; stroke: #0000ff"/>
     <use xlink:href="#mf3a16f23e5" x="1021.975019" y="462.256985" style="fill: #0000ff; stroke: #0000ff"/>
     <use xlink:href="#mf3a16f23e5" x="1086.95996" y="427.800251" style="fill: #0000ff; stroke: #0000ff"/>
     <use xlink:href="#mf3a16f23e5" x="1133.06751" y="390.818898" style="fill: #0000ff; stroke: #0000ff"/>
     <use xlink:href="#mf3a16f23e5" x="1168.831303" y="357.477585" style="fill: #0000ff; stroke: #0000ff"/>
     <use xlink:href="#mf3a16f23e5" x="1198.052451" y="332.884018" style="fill: #0000ff; stroke: #0000ff"/>
    </g>
   </g>
   <g id="PolyCollection_4">
    <defs>
     <path id="ma75948b716" d="M 283.89249 -102.728969 
L 283.89249 -102.728969 
L 348.877431 -102.728969 
L 394.984981 -102.728969 
L 430.748774 -102.728969 
L 459.969921 -102.728969 
L 484.676049 -102.728969 
L 506.077471 -102.728969 
L 524.954862 -102.728969 
L 541.841265 -102.728969 
L 652.933755 -102.728969 
L 717.918696 -102.728969 
L 764.026245 -102.728969 
L 799.790039 -102.728969 
L 829.011186 -102.728969 
L 853.717314 -102.728969 
L 875.118735 -102.728969 
L 893.996127 -102.728969 
L 910.882529 -102.728969 
L 1021.975019 -154.206304 
L 1086.95996 -102.728969 
L 1133.06751 -220.880895 
L 1168.831303 -299.99264 
L 1198.052451 -345.741831 
L 1198.052451 -357.170419 
L 1198.052451 -357.170419 
L 1168.831303 -343.767848 
L 1133.06751 -319.517336 
L 1086.95996 -286.95846 
L 1021.975019 -243.375 
L 910.882529 -142.073346 
L 893.996127 -136.659264 
L 875.118735 -128.425628 
L 853.717314 -126.366399 
L 829.011186 -123.569219 
L 799.790039 -123.569219 
L 764.026245 -114.720744 
L 717.918696 -119.860075 
L 652.933755 -102.728969 
L 541.841265 -102.728969 
L 524.954862 -114.720744 
L 506.077471 -102.728969 
L 484.676049 -102.728969 
L 459.969921 -114.720744 
L 430.748774 -102.728969 
L 394.984981 -102.728969 
L 348.877431 -102.728969 
L 283.89249 -102.728969 
z
" style="stroke: #0000ff; stroke-opacity: 0.2"/>
    </defs>
    <g clip-path="url(#pc4743e3971)">
     <use xlink:href="#ma75948b716" x="0" y="684.72" style="fill: #0000ff; fill-opacity: 0.2; stroke: #0000ff; stroke-opacity: 0.2"/>
    </g>
   </g>
   <g id="PathCollection_5">
    <defs>
     <path id="m6adeedf694" d="M 0 1.581139 
C 0.419323 1.581139 0.821528 1.41454 1.118034 1.118034 
C 1.41454 0.821528 1.581139 0.419323 1.581139 0 
C 1.581139 -0.419323 1.41454 -0.821528 1.118034 -1.118034 
C 0.821528 -1.41454 0.419323 -1.581139 0 -1.581139 
C -0.419323 -1.581139 -0.821528 -1.41454 -1.118034 -1.118034 
C -1.41454 -0.821528 -1.581139 -0.419323 -1.581139 0 
C -1.581139 0.419323 -1.41454 0.821528 -1.118034 1.118034 
C -0.821528 1.41454 -0.419323 1.581139 0 1.581139 
z
" style="stroke: #008000"/>
    </defs>
    <g clip-path="url(#pc4743e3971)">
     <use xlink:href="#m6adeedf694" x="283.89249" y="581.991031" style="fill: #008000; stroke: #008000"/>
     <use xlink:href="#m6adeedf694" x="348.877431" y="581.991031" style="fill: #008000; stroke: #008000"/>
     <use xlink:href="#m6adeedf694" x="394.984981" y="581.991031" style="fill: #008000; stroke: #008000"/>
     <use xlink:href="#m6adeedf694" x="430.748774" y="581.991031" style="fill: #008000; stroke: #008000"/>
     <use xlink:href="#m6adeedf694" x="459.969921" y="581.991031" style="fill: #008000; stroke: #008000"/>
     <use xlink:href="#m6adeedf694" x="484.676049" y="581.991031" style="fill: #008000; stroke: #008000"/>
     <use xlink:href="#m6adeedf694" x="506.077471" y="581.991031" style="fill: #008000; stroke: #008000"/>
     <use xlink:href="#m6adeedf694" x="524.954862" y="581.991031" style="fill: #008000; stroke: #008000"/>
     <use xlink:href="#m6adeedf694" x="541.841265" y="578.564809" style="fill: #008000; stroke: #008000"/>
     <use xlink:href="#m6adeedf694" x="652.933755" y="573.425478" style="fill: #008000; stroke: #008000"/>
     <use xlink:href="#m6adeedf694" x="717.918696" y="552.86815" style="fill: #008000; stroke: #008000"/>
     <use xlink:href="#m6adeedf694" x="764.026245" y="434.723089" style="fill: #008000; stroke: #008000"/>
     <use xlink:href="#m6adeedf694" x="799.790039" y="411.46287" style="fill: #008000; stroke: #008000"/>
     <use xlink:href="#m6adeedf694" x="829.011186" y="394.466037" style="fill: #008000; stroke: #008000"/>
     <use xlink:href="#m6adeedf694" x="853.717314" y="380.95765" style="fill: #008000; stroke: #008000"/>
     <use xlink:href="#m6adeedf694" x="875.118735" y="379.860776" style="fill: #008000; stroke: #008000"/>
     <use xlink:href="#m6adeedf694" x="893.996127" y="366.255947" style="fill: #008000; stroke: #008000"/>
     <use xlink:href="#m6adeedf694" x="910.882529" y="363.740828" style="fill: #008000; stroke: #008000"/>
     <use xlink:href="#m6adeedf694" x="1021.975019" y="292.434401" style="fill: #008000; stroke: #008000"/>
     <use xlink:href="#m6adeedf694" x="1086.95996" y="247.668587" style="fill: #008000; stroke: #008000"/>
     <use xlink:href="#m6adeedf694" x="1133.06751" y="209.837408" style="fill: #008000; stroke: #008000"/>
     <use xlink:href="#m6adeedf694" x="1168.831303" y="178.104438" style="fill: #008000; stroke: #008000"/>
     <use xlink:href="#m6adeedf694" x="1198.052451" y="153.176045" style="fill: #008000; stroke: #008000"/>
    </g>
   </g>
   <g id="PolyCollection_5">
    <defs>
     <path id="m9d5271d9f0" d="M 283.89249 -102.728969 
L 283.89249 -102.728969 
L 348.877431 -102.728969 
L 394.984981 -102.728969 
L 430.748774 -102.728969 
L 459.969921 -102.728969 
L 484.676049 -102.728969 
L 506.077471 -102.728969 
L 524.954862 -102.728969 
L 541.841265 -102.728969 
L 652.933755 -102.728969 
L 717.918696 -102.728969 
L 764.026245 -183.18914 
L 799.790039 -150.367311 
L 829.011186 -147.381579 
L 853.717314 -271.710398 
L 875.118735 -251.804594 
L 893.996127 -304.328944 
L 910.882529 -267.836963 
L 1021.975019 -364.592579 
L 1086.95996 -402.928566 
L 1133.06751 -446.328466 
L 1168.831303 -492.464711 
L 1198.052451 -529.272463 
L 1198.052451 -533.701082 
L 1198.052451 -533.701082 
L 1168.831303 -517.235594 
L 1133.06751 -491.868111 
L 1086.95996 -455.804378 
L 1021.975019 -408.96951 
L 910.882529 -343.986064 
L 893.996127 -329.07525 
L 875.118735 -327.851284 
L 853.717314 -321.893036 
L 829.011186 -318.51666 
L 799.790039 -300.651709 
L 764.026245 -272.610714 
L 717.918696 -180.426918 
L 652.933755 -152.551689 
L 541.841265 -119.860075 
L 524.954862 -102.728969 
L 506.077471 -102.728969 
L 484.676049 -102.728969 
L 459.969921 -102.728969 
L 430.748774 -102.728969 
L 394.984981 -102.728969 
L 348.877431 -102.728969 
L 283.89249 -102.728969 
z
" style="stroke: #008000; stroke-opacity: 0.2"/>
    </defs>
    <g clip-path="url(#pc4743e3971)">
     <use xlink:href="#m9d5271d9f0" x="0" y="684.72" style="fill: #008000; fill-opacity: 0.2; stroke: #008000; stroke-opacity: 0.2"/>
    </g>
   </g>
   <g id="matplotlib.axis_1">
    <g id="xtick_1">
     <g id="line2d_1">
      <path d="M 172.8 609.4008 
L 172.8 82.1664 
" clip-path="url(#pc4743e3971)" style="fill: none; stroke: #b0b0b0; stroke-width: 0.8; stroke-linecap: square"/>
     </g>
     <g id="line2d_2">
      <defs>
       <path id="m0234b5f859" d="M 0 0 
L 0 3.5 
" style="stroke: #000000; stroke-width: 0.8"/>
      </defs>
      <g>
       <use xlink:href="#m0234b5f859" x="172.8" y="609.4008" style="stroke: #000000; stroke-width: 0.8"/>
      </g>
     </g>
     <g id="text_1">
      <!-- $\mathdefault{10^{0}}$ -->
      <g transform="translate(162.86 625.962363)scale(0.14 -0.14)">
       <defs>
        <path id="STIXGeneral-Regular-31" d="M 2522 0 
L 755 0 
L 755 96 
Q 1107 115 1235 227 
Q 1363 339 1363 608 
L 1363 3482 
Q 1363 3795 1171 3795 
Q 1082 3795 883 3718 
L 710 3654 
L 710 3744 
L 1856 4326 
L 1914 4307 
L 1914 486 
Q 1914 275 2042 185 
Q 2170 96 2522 96 
L 2522 0 
z
" transform="scale(0.015625)"/>
        <path id="STIXGeneral-Regular-30" d="M 3046 2112 
Q 3046 1683 2963 1302 
Q 2880 922 2717 602 
Q 2554 282 2266 96 
Q 1978 -90 1600 -90 
Q 1210 -90 915 108 
Q 621 307 461 640 
Q 301 973 227 1350 
Q 154 1728 154 2150 
Q 154 2746 301 3222 
Q 448 3699 790 4012 
Q 1133 4326 1626 4326 
Q 2253 4326 2649 3712 
Q 3046 3098 3046 2112 
z
M 2432 2080 
Q 2432 3091 2217 3625 
Q 2003 4160 1587 4160 
Q 1190 4160 979 3622 
Q 768 3085 768 2106 
Q 768 1120 979 598 
Q 1190 77 1600 77 
Q 2003 77 2217 598 
Q 2432 1120 2432 2080 
z
" transform="scale(0.015625)"/>
       </defs>
       <use xlink:href="#STIXGeneral-Regular-31" transform="translate(0 0.684375)"/>
       <use xlink:href="#STIXGeneral-Regular-30" transform="translate(49.999985 0.684375)"/>
       <use xlink:href="#STIXGeneral-Regular-30" transform="translate(101.574969 36.684375)scale(0.7)"/>
      </g>
     </g>
    </g>
    <g id="xtick_2">
     <g id="line2d_3">
      <path d="M 541.841265 609.4008 
L 541.841265 82.1664 
" clip-path="url(#pc4743e3971)" style="fill: none; stroke: #b0b0b0; stroke-width: 0.8; stroke-linecap: square"/>
     </g>
     <g id="line2d_4">
      <g>
       <use xlink:href="#m0234b5f859" x="541.841265" y="609.4008" style="stroke: #000000; stroke-width: 0.8"/>
      </g>
     </g>
     <g id="text_2">
      <!-- $\mathdefault{10^{1}}$ -->
      <g transform="translate(531.901265 625.962363)scale(0.14 -0.14)">
       <use xlink:href="#STIXGeneral-Regular-31" transform="translate(0 0.684375)"/>
       <use xlink:href="#STIXGeneral-Regular-30" transform="translate(49.999985 0.684375)"/>
       <use xlink:href="#STIXGeneral-Regular-31" transform="translate(101.574969 36.684375)scale(0.7)"/>
      </g>
     </g>
    </g>
    <g id="xtick_3">
     <g id="line2d_5">
      <path d="M 910.882529 609.4008 
L 910.882529 82.1664 
" clip-path="url(#pc4743e3971)" style="fill: none; stroke: #b0b0b0; stroke-width: 0.8; stroke-linecap: square"/>
     </g>
     <g id="line2d_6">
      <g>
       <use xlink:href="#m0234b5f859" x="910.882529" y="609.4008" style="stroke: #000000; stroke-width: 0.8"/>
      </g>
     </g>
     <g id="text_3">
      <!-- $\mathdefault{10^{2}}$ -->
      <g transform="translate(900.942529 625.962363)scale(0.14 -0.14)">
       <defs>
        <path id="STIXGeneral-Regular-32" d="M 3034 877 
L 2688 0 
L 186 0 
L 186 77 
L 1325 1286 
Q 1773 1754 1965 2144 
Q 2157 2534 2157 2950 
Q 2157 3379 1920 3616 
Q 1683 3853 1267 3853 
Q 922 3853 720 3673 
Q 518 3494 326 3021 
L 192 3053 
Q 301 3648 630 3987 
Q 960 4326 1523 4326 
Q 2054 4326 2380 4006 
Q 2707 3686 2707 3200 
Q 2707 2477 1888 1613 
L 832 486 
L 2330 486 
Q 2541 486 2665 569 
Q 2790 653 2944 915 
L 3034 877 
z
" transform="scale(0.015625)"/>
       </defs>
       <use xlink:href="#STIXGeneral-Regular-31" transform="translate(0 0.684375)"/>
       <use xlink:href="#STIXGeneral-Regular-30" transform="translate(49.999985 0.684375)"/>
       <use xlink:href="#STIXGeneral-Regular-32" transform="translate(101.574969 36.684375)scale(0.7)"/>
      </g>
     </g>
    </g>
    <g id="xtick_4">
     <g id="line2d_7">
      <defs>
       <path id="mde318f3d44" d="M 0 0 
L 0 2 
" style="stroke: #000000; stroke-width: 0.6"/>
      </defs>
      <g>
       <use xlink:href="#mde318f3d44" x="283.89249" y="609.4008" style="stroke: #000000; stroke-width: 0.6"/>
      </g>
     </g>
    </g>
    <g id="xtick_5">
     <g id="line2d_8">
      <g>
       <use xlink:href="#mde318f3d44" x="348.877431" y="609.4008" style="stroke: #000000; stroke-width: 0.6"/>
      </g>
     </g>
    </g>
    <g id="xtick_6">
     <g id="line2d_9">
      <g>
       <use xlink:href="#mde318f3d44" x="394.984981" y="609.4008" style="stroke: #000000; stroke-width: 0.6"/>
      </g>
     </g>
    </g>
    <g id="xtick_7">
     <g id="line2d_10">
      <g>
       <use xlink:href="#mde318f3d44" x="430.748774" y="609.4008" style="stroke: #000000; stroke-width: 0.6"/>
      </g>
     </g>
    </g>
    <g id="xtick_8">
     <g id="line2d_11">
      <g>
       <use xlink:href="#mde318f3d44" x="459.969921" y="609.4008" style="stroke: #000000; stroke-width: 0.6"/>
      </g>
     </g>
    </g>
    <g id="xtick_9">
     <g id="line2d_12">
      <g>
       <use xlink:href="#mde318f3d44" x="484.676049" y="609.4008" style="stroke: #000000; stroke-width: 0.6"/>
      </g>
     </g>
    </g>
    <g id="xtick_10">
     <g id="line2d_13">
      <g>
       <use xlink:href="#mde318f3d44" x="506.077471" y="609.4008" style="stroke: #000000; stroke-width: 0.6"/>
      </g>
     </g>
    </g>
    <g id="xtick_11">
     <g id="line2d_14">
      <g>
       <use xlink:href="#mde318f3d44" x="524.954862" y="609.4008" style="stroke: #000000; stroke-width: 0.6"/>
      </g>
     </g>
    </g>
    <g id="xtick_12">
     <g id="line2d_15">
      <g>
       <use xlink:href="#mde318f3d44" x="652.933755" y="609.4008" style="stroke: #000000; stroke-width: 0.6"/>
      </g>
     </g>
    </g>
    <g id="xtick_13">
     <g id="line2d_16">
      <g>
       <use xlink:href="#mde318f3d44" x="717.918696" y="609.4008" style="stroke: #000000; stroke-width: 0.6"/>
      </g>
     </g>
    </g>
    <g id="xtick_14">
     <g id="line2d_17">
      <g>
       <use xlink:href="#mde318f3d44" x="764.026245" y="609.4008" style="stroke: #000000; stroke-width: 0.6"/>
      </g>
     </g>
    </g>
    <g id="xtick_15">
     <g id="line2d_18">
      <g>
       <use xlink:href="#mde318f3d44" x="799.790039" y="609.4008" style="stroke: #000000; stroke-width: 0.6"/>
      </g>
     </g>
    </g>
    <g id="xtick_16">
     <g id="line2d_19">
      <g>
       <use xlink:href="#mde318f3d44" x="829.011186" y="609.4008" style="stroke: #000000; stroke-width: 0.6"/>
      </g>
     </g>
    </g>
    <g id="xtick_17">
     <g id="line2d_20">
      <g>
       <use xlink:href="#mde318f3d44" x="853.717314" y="609.4008" style="stroke: #000000; stroke-width: 0.6"/>
      </g>
     </g>
    </g>
    <g id="xtick_18">
     <g id="line2d_21">
      <g>
       <use xlink:href="#mde318f3d44" x="875.118735" y="609.4008" style="stroke: #000000; stroke-width: 0.6"/>
      </g>
     </g>
    </g>
    <g id="xtick_19">
     <g id="line2d_22">
      <g>
       <use xlink:href="#mde318f3d44" x="893.996127" y="609.4008" style="stroke: #000000; stroke-width: 0.6"/>
      </g>
     </g>
    </g>
    <g id="xtick_20">
     <g id="line2d_23">
      <g>
       <use xlink:href="#mde318f3d44" x="1021.975019" y="609.4008" style="stroke: #000000; stroke-width: 0.6"/>
      </g>
     </g>
    </g>
    <g id="xtick_21">
     <g id="line2d_24">
      <g>
       <use xlink:href="#mde318f3d44" x="1086.95996" y="609.4008" style="stroke: #000000; stroke-width: 0.6"/>
      </g>
     </g>
    </g>
    <g id="xtick_22">
     <g id="line2d_25">
      <g>
       <use xlink:href="#mde318f3d44" x="1133.06751" y="609.4008" style="stroke: #000000; stroke-width: 0.6"/>
      </g>
     </g>
    </g>
    <g id="xtick_23">
     <g id="line2d_26">
      <g>
       <use xlink:href="#mde318f3d44" x="1168.831303" y="609.4008" style="stroke: #000000; stroke-width: 0.6"/>
      </g>
     </g>
    </g>
    <g id="xtick_24">
     <g id="line2d_27">
      <g>
       <use xlink:href="#mde318f3d44" x="1198.052451" y="609.4008" style="stroke: #000000; stroke-width: 0.6"/>
      </g>
     </g>
    </g>
    <g id="xtick_25">
     <g id="line2d_28">
      <g>
       <use xlink:href="#mde318f3d44" x="1222.758579" y="609.4008" style="stroke: #000000; stroke-width: 0.6"/>
      </g>
     </g>
    </g>
    <g id="xtick_26">
     <g id="line2d_29">
      <g>
       <use xlink:href="#mde318f3d44" x="1244.16" y="609.4008" style="stroke: #000000; stroke-width: 0.6"/>
      </g>
     </g>
    </g>
    <g id="text_4">
     <!-- $\mathrm{n}$ -->
     <g transform="translate(704.98 642.562363)scale(0.14 -0.14)">
      <defs>
       <path id="STIXGeneral-Regular-6e" d="M 3104 0 
L 1773 0 
L 1779 96 
Q 2016 115 2096 233 
Q 2176 352 2176 672 
L 2176 1946 
Q 2176 2592 1709 2592 
Q 1549 2592 1408 2515 
Q 1267 2438 1050 2227 
L 1050 461 
Q 1050 269 1136 192 
Q 1222 115 1466 96 
L 1466 0 
L 115 0 
L 115 96 
Q 358 115 435 214 
Q 512 314 512 602 
L 512 2157 
Q 512 2394 467 2483 
Q 422 2573 288 2573 
Q 160 2573 102 2547 
L 102 2656 
Q 550 2784 979 2944 
L 1030 2925 
L 1030 2426 
L 1037 2426 
Q 1491 2944 1958 2944 
Q 2323 2944 2518 2688 
Q 2714 2432 2714 1958 
L 2714 544 
Q 2714 288 2790 205 
Q 2867 122 3104 96 
L 3104 0 
z
" transform="scale(0.015625)"/>
      </defs>
      <use xlink:href="#STIXGeneral-Regular-6e"/>
     </g>
    </g>
   </g>
   <g id="matplotlib.axis_2">
    <g id="ytick_1">
     <g id="line2d_30">
      <path d="M 172.8 581.991031 
L 1244.16 581.991031 
" clip-path="url(#pc4743e3971)" style="fill: none; stroke: #b0b0b0; stroke-width: 0.8; stroke-linecap: square"/>
     </g>
     <g id="line2d_31">
      <defs>
       <path id="m1fad82661a" d="M 0 0 
L -3.5 0 
" style="stroke: #000000; stroke-width: 0.8"/>
      </defs>
      <g>
       <use xlink:href="#m1fad82661a" x="172.8" y="581.991031" style="stroke: #000000; stroke-width: 0.8"/>
      </g>
     </g>
     <g id="text_5">
      <!-- $\mathdefault{0}$ -->
      <g transform="translate(158.8 586.771812)scale(0.14 -0.14)">
       <use xlink:href="#STIXGeneral-Regular-30" transform="translate(0 0.40625)"/>
      </g>
     </g>
    </g>
    <g id="ytick_2">
     <g id="line2d_32">
      <path d="M 172.8 472.351953 
L 1244.16 472.351953 
" clip-path="url(#pc4743e3971)" style="fill: none; stroke: #b0b0b0; stroke-width: 0.8; stroke-linecap: square"/>
     </g>
     <g id="line2d_33">
      <g>
       <use xlink:href="#m1fad82661a" x="172.8" y="472.351953" style="stroke: #000000; stroke-width: 0.8"/>
      </g>
     </g>
     <g id="text_6">
      <!-- $\mathdefault{10^{-1}}$ -->
      <g transform="translate(139.2 477.132734)scale(0.14 -0.14)">
       <defs>
        <path id="STIXGeneral-Regular-2212" d="M 3974 1408 
L 410 1408 
L 410 1830 
L 3974 1830 
L 3974 1408 
z
" transform="scale(0.015625)"/>
       </defs>
       <use xlink:href="#STIXGeneral-Regular-31" transform="translate(0 0.684375)"/>
       <use xlink:href="#STIXGeneral-Regular-30" transform="translate(49.999985 0.684375)"/>
       <use xlink:href="#STIXGeneral-Regular-2212" transform="translate(101.574969 36.684375)scale(0.7)"/>
       <use xlink:href="#STIXGeneral-Regular-31" transform="translate(149.524959 36.684375)scale(0.7)"/>
      </g>
     </g>
    </g>
    <g id="ytick_3">
     <g id="line2d_34">
      <path d="M 172.8 373.676782 
L 1244.16 373.676782 
" clip-path="url(#pc4743e3971)" style="fill: none; stroke: #b0b0b0; stroke-width: 0.8; stroke-linecap: square"/>
     </g>
     <g id="line2d_35">
      <g>
       <use xlink:href="#m1fad82661a" x="172.8" y="373.676782" style="stroke: #000000; stroke-width: 0.8"/>
      </g>
     </g>
     <g id="text_7">
      <!-- $\mathdefault{10^{0}}$ -->
      <g transform="translate(145.92 378.457564)scale(0.14 -0.14)">
       <use xlink:href="#STIXGeneral-Regular-31" transform="translate(0 0.684375)"/>
       <use xlink:href="#STIXGeneral-Regular-30" transform="translate(49.999985 0.684375)"/>
       <use xlink:href="#STIXGeneral-Regular-30" transform="translate(101.574969 36.684375)scale(0.7)"/>
      </g>
     </g>
    </g>
    <g id="ytick_4">
     <g id="line2d_36">
      <path d="M 172.8 275.001612 
L 1244.16 275.001612 
" clip-path="url(#pc4743e3971)" style="fill: none; stroke: #b0b0b0; stroke-width: 0.8; stroke-linecap: square"/>
     </g>
     <g id="line2d_37">
      <g>
       <use xlink:href="#m1fad82661a" x="172.8" y="275.001612" style="stroke: #000000; stroke-width: 0.8"/>
      </g>
     </g>
     <g id="text_8">
      <!-- $\mathdefault{10^{1}}$ -->
      <g transform="translate(145.92 279.782393)scale(0.14 -0.14)">
       <use xlink:href="#STIXGeneral-Regular-31" transform="translate(0 0.684375)"/>
       <use xlink:href="#STIXGeneral-Regular-30" transform="translate(49.999985 0.684375)"/>
       <use xlink:href="#STIXGeneral-Regular-31" transform="translate(101.574969 36.684375)scale(0.7)"/>
      </g>
     </g>
    </g>
    <g id="ytick_5">
     <g id="line2d_38">
      <path d="M 172.8 176.326442 
L 1244.16 176.326442 
" clip-path="url(#pc4743e3971)" style="fill: none; stroke: #b0b0b0; stroke-width: 0.8; stroke-linecap: square"/>
     </g>
     <g id="line2d_39">
      <g>
       <use xlink:href="#m1fad82661a" x="172.8" y="176.326442" style="stroke: #000000; stroke-width: 0.8"/>
      </g>
     </g>
     <g id="text_9">
      <!-- $\mathdefault{10^{2}}$ -->
      <g transform="translate(145.92 181.107223)scale(0.14 -0.14)">
       <use xlink:href="#STIXGeneral-Regular-31" transform="translate(0 0.684375)"/>
       <use xlink:href="#STIXGeneral-Regular-30" transform="translate(49.999985 0.684375)"/>
       <use xlink:href="#STIXGeneral-Regular-32" transform="translate(101.574969 36.684375)scale(0.7)"/>
      </g>
     </g>
    </g>
    <g id="text_10">
     <!-- Time in seconds -->
     <g transform="translate(132.161562 391.669694)rotate(-90)scale(0.14 -0.14)">
      <defs>
       <path id="STIXGeneral-Regular-54" d="M 3795 3149 
L 3642 3149 
Q 3539 3674 3353 3821 
Q 3168 3968 2656 3968 
L 2278 3968 
L 2278 710 
Q 2278 346 2387 243 
Q 2496 141 2893 122 
L 2893 0 
L 1024 0 
L 1024 122 
Q 1427 147 1526 256 
Q 1626 365 1626 787 
L 1626 3968 
L 1242 3968 
Q 723 3968 540 3817 
Q 358 3667 262 3149 
L 109 3149 
L 154 4237 
L 3750 4237 
L 3795 3149 
z
" transform="scale(0.015625)"/>
       <path id="STIXGeneral-Regular-69" d="M 1152 4045 
Q 1152 3904 1056 3811 
Q 960 3718 819 3718 
Q 685 3718 592 3811 
Q 499 3904 499 4045 
Q 499 4179 595 4275 
Q 691 4371 826 4371 
Q 966 4371 1059 4275 
Q 1152 4179 1152 4045 
z
M 1619 0 
L 102 0 
L 102 96 
Q 435 115 521 211 
Q 608 307 608 666 
L 608 2118 
Q 608 2342 563 2432 
Q 518 2522 397 2522 
Q 243 2522 128 2490 
L 128 2592 
L 1120 2944 
L 1146 2918 
L 1146 672 
Q 1146 314 1226 218 
Q 1306 122 1619 96 
L 1619 0 
z
" transform="scale(0.015625)"/>
       <path id="STIXGeneral-Regular-6d" d="M 4960 0 
L 3565 0 
L 3565 96 
Q 3834 122 3907 208 
Q 3981 294 3981 576 
L 3981 1894 
Q 3981 2278 3869 2444 
Q 3757 2611 3488 2611 
Q 3264 2611 3107 2521 
Q 2950 2432 2803 2221 
L 2803 608 
Q 2803 301 2896 201 
Q 2989 102 3264 96 
L 3264 0 
L 1830 0 
L 1830 96 
Q 2112 115 2189 188 
Q 2266 262 2266 550 
L 2266 1901 
Q 2266 2611 1850 2611 
Q 1670 2611 1468 2531 
Q 1267 2451 1171 2336 
Q 1088 2240 1088 2227 
L 1088 448 
Q 1088 243 1177 176 
Q 1267 109 1523 96 
L 1523 0 
L 102 0 
L 102 96 
Q 371 102 460 195 
Q 550 288 550 563 
L 550 2150 
Q 550 2387 499 2480 
Q 448 2573 326 2573 
Q 230 2573 122 2547 
L 122 2656 
Q 557 2778 1011 2944 
L 1062 2925 
L 1062 2451 
L 1075 2451 
Q 1363 2752 1584 2848 
Q 1805 2944 2054 2944 
Q 2560 2944 2733 2406 
Q 3232 2944 3776 2944 
Q 4518 2944 4518 1792 
L 4518 493 
Q 4518 282 4582 202 
Q 4646 122 4794 109 
L 4960 96 
L 4960 0 
z
" transform="scale(0.015625)"/>
       <path id="STIXGeneral-Regular-65" d="M 2611 1050 
L 2714 1005 
Q 2330 -64 1376 -64 
Q 813 -64 486 329 
Q 160 723 160 1389 
Q 160 2074 525 2509 
Q 890 2944 1485 2944 
Q 2061 2944 2374 2502 
Q 2560 2246 2592 1773 
L 621 1773 
Q 646 1370 700 1158 
Q 755 947 915 730 
Q 1184 378 1626 378 
Q 1939 378 2153 531 
Q 2368 685 2611 1050 
z
M 634 1978 
L 1939 1978 
Q 1882 2381 1750 2547 
Q 1619 2714 1312 2714 
Q 1043 2714 864 2525 
Q 685 2336 634 1978 
z
" transform="scale(0.015625)"/>
       <path id="STIXGeneral-Regular-20" transform="scale(0.015625)"/>
       <path id="STIXGeneral-Regular-73" d="M 998 1926 
L 1664 1523 
Q 1984 1331 2105 1164 
Q 2227 998 2227 736 
Q 2227 416 1961 176 
Q 1696 -64 1331 -64 
Q 1030 -64 864 -6 
Q 691 51 570 51 
Q 461 51 416 -26 
L 333 -26 
L 333 979 
L 435 979 
Q 538 512 730 294 
Q 922 77 1248 77 
Q 1485 77 1632 211 
Q 1779 346 1779 550 
Q 1779 845 1440 1030 
L 1094 1222 
Q 326 1651 326 2150 
Q 326 2522 566 2730 
Q 806 2938 1210 2938 
Q 1491 2938 1638 2867 
Q 1754 2816 1818 2816 
Q 1862 2816 1920 2880 
L 1990 2880 
L 2022 2010 
L 1926 2010 
Q 1818 2445 1654 2621 
Q 1491 2797 1203 2797 
Q 986 2797 854 2688 
Q 723 2579 723 2362 
Q 723 2253 796 2128 
Q 870 2003 998 1926 
z
" transform="scale(0.015625)"/>
       <path id="STIXGeneral-Regular-63" d="M 2547 998 
L 2637 941 
Q 2362 403 2112 205 
Q 1786 -64 1376 -64 
Q 845 -64 502 336 
Q 160 736 160 1357 
Q 160 2170 698 2618 
Q 1094 2944 1562 2944 
Q 1965 2944 2256 2749 
Q 2547 2554 2547 2285 
Q 2547 2176 2457 2096 
Q 2368 2016 2246 2016 
Q 2022 2016 1939 2310 
L 1901 2451 
Q 1850 2630 1773 2694 
Q 1696 2758 1523 2758 
Q 1133 2758 893 2451 
Q 653 2144 653 1645 
Q 653 1094 928 745 
Q 1203 397 1645 397 
Q 1920 397 2118 528 
Q 2317 659 2547 998 
z
" transform="scale(0.015625)"/>
       <path id="STIXGeneral-Regular-6f" d="M 3008 1478 
Q 3008 806 2608 371 
Q 2208 -64 1568 -64 
Q 979 -64 582 368 
Q 186 800 186 1459 
Q 186 2125 582 2534 
Q 979 2944 1626 2944 
Q 2221 2944 2614 2537 
Q 3008 2131 3008 1478 
z
M 2432 1306 
Q 2432 2035 2112 2445 
Q 1856 2765 1504 2765 
Q 1171 2765 966 2493 
Q 762 2221 762 1747 
Q 762 928 1101 435 
Q 1318 115 1677 115 
Q 2029 115 2230 432 
Q 2432 749 2432 1306 
z
" transform="scale(0.015625)"/>
       <path id="STIXGeneral-Regular-64" d="M 3142 269 
L 2202 -64 
L 2176 -45 
L 2176 365 
Q 1869 -64 1357 -64 
Q 826 -64 499 317 
Q 173 698 173 1312 
Q 173 1990 563 2467 
Q 954 2944 1504 2944 
Q 1850 2944 2176 2669 
L 2176 3667 
Q 2176 3866 2118 3930 
Q 2061 3994 1882 3994 
Q 1792 3994 1741 3987 
L 1741 4090 
Q 2323 4243 2682 4371 
L 2714 4358 
L 2714 730 
Q 2714 506 2768 435 
Q 2822 365 2995 365 
Q 3034 365 3142 371 
L 3142 269 
z
M 2176 653 
L 2176 2125 
Q 2176 2381 1981 2573 
Q 1786 2765 1523 2765 
Q 1158 2765 940 2438 
Q 723 2112 723 1568 
Q 723 979 963 624 
Q 1203 269 1606 269 
Q 1907 269 2080 474 
Q 2176 582 2176 653 
z
" transform="scale(0.015625)"/>
      </defs>
      <use xlink:href="#STIXGeneral-Regular-54"/>
      <use xlink:href="#STIXGeneral-Regular-69" x="61.099991"/>
      <use xlink:href="#STIXGeneral-Regular-6d" x="88.899979"/>
      <use xlink:href="#STIXGeneral-Regular-65" x="166.699966"/>
      <use xlink:href="#STIXGeneral-Regular-20" x="211.09996"/>
      <use xlink:href="#STIXGeneral-Regular-69" x="236.099945"/>
      <use xlink:href="#STIXGeneral-Regular-6e" x="263.899933"/>
      <use xlink:href="#STIXGeneral-Regular-20" x="313.899918"/>
      <use xlink:href="#STIXGeneral-Regular-73" x="338.899902"/>
      <use xlink:href="#STIXGeneral-Regular-65" x="377.799896"/>
      <use xlink:href="#STIXGeneral-Regular-63" x="422.19989"/>
      <use xlink:href="#STIXGeneral-Regular-6f" x="466.599884"/>
      <use xlink:href="#STIXGeneral-Regular-6e" x="516.599869"/>
      <use xlink:href="#STIXGeneral-Regular-64" x="566.599854"/>
      <use xlink:href="#STIXGeneral-Regular-73" x="616.599838"/>
     </g>
    </g>
   </g>
   <g id="line2d_40">
    <path d="M 283.89249 581.991031 
L 348.877431 581.991031 
L 394.984981 580.27792 
L 430.748774 581.991031 
L 459.969921 581.991031 
L 484.676049 580.27792 
L 506.077471 581.991031 
L 524.954862 580.27792 
L 541.841265 580.27792 
L 652.933755 568.286146 
L 717.918696 523.74527 
L 764.026245 464.987468 
L 799.790039 437.600283 
L 829.011186 412.94358 
L 853.717314 391.321296 
L 875.118735 376.157776 
L 893.996127 359.497384 
L 910.882529 346.738335 
L 1021.975019 258.23269 
L 1086.95996 206.090934 
L 1133.06751 168.821221 
L 1168.831303 139.413682 
L 1198.052451 115.804236 
" clip-path="url(#pc4743e3971)" style="fill: none; stroke: #800080; stroke-width: 1.5; stroke-linecap: square"/>
   </g>
   <g id="line2d_41">
    <path d="M 283.89249 581.991031 
L 348.877431 581.991031 
L 394.984981 581.991031 
L 430.748774 581.991031 
L 459.969921 580.27792 
L 484.676049 580.27792 
L 506.077471 578.564809 
L 524.954862 578.564809 
L 541.841265 576.851699 
L 652.933755 568.286146 
L 717.918696 549.441929 
L 764.026245 537.450155 
L 799.790039 523.74527 
L 829.011186 510.040386 
L 853.717314 479.204395 
L 875.118735 471.687535 
L 893.996127 455.878342 
L 910.882529 454.53203 
L 1021.975019 380.093468 
L 1086.95996 335.742907 
L 1133.06751 297.217441 
L 1168.831303 264.579875 
L 1198.052451 240.285669 
" clip-path="url(#pc4743e3971)" style="fill: none; stroke: #ffa500; stroke-width: 1.5; stroke-linecap: square"/>
   </g>
   <g id="line2d_42">
    <path d="M 283.89249 581.991031 
L 348.877431 581.991031 
L 394.984981 581.991031 
L 430.748774 581.991031 
L 459.969921 581.991031 
L 484.676049 581.991031 
L 506.077471 581.991031 
L 524.954862 581.991031 
L 541.841265 581.991031 
L 652.933755 581.991031 
L 717.918696 581.991031 
L 764.026245 581.991031 
L 799.790039 581.991031 
L 829.011186 576.851699 
L 853.717314 578.564809 
L 875.118735 578.564809 
L 893.996127 575.138588 
L 910.882529 569.999256 
L 1021.975019 469.75394 
L 1086.95996 431.507525 
L 1133.06751 392.034698 
L 1168.831303 358.124801 
L 1198.052451 333.666524 
" clip-path="url(#pc4743e3971)" style="fill: none; stroke: #ff0000; stroke-width: 1.5; stroke-linecap: square"/>
   </g>
   <g id="line2d_43">
    <path d="M 283.89249 581.991031 
L 348.877431 581.991031 
L 394.984981 581.991031 
L 430.748774 581.991031 
L 459.969921 580.27792 
L 484.676049 581.991031 
L 506.077471 581.991031 
L 524.954862 580.27792 
L 541.841265 581.991031 
L 652.933755 581.991031 
L 717.918696 578.564809 
L 764.026245 580.27792 
L 799.790039 576.851699 
L 829.011186 576.851699 
L 853.717314 575.138588 
L 875.118735 573.425478 
L 893.996127 569.999256 
L 910.882529 568.286146 
L 1021.975019 462.256985 
L 1086.95996 427.800251 
L 1133.06751 390.818898 
L 1168.831303 357.477585 
L 1198.052451 332.884018 
" clip-path="url(#pc4743e3971)" style="fill: none; stroke: #0000ff; stroke-width: 1.5; stroke-linecap: square"/>
   </g>
   <g id="line2d_44">
    <path d="M 283.89249 581.991031 
L 348.877431 581.991031 
L 394.984981 581.991031 
L 430.748774 581.991031 
L 459.969921 581.991031 
L 484.676049 581.991031 
L 506.077471 581.991031 
L 524.954862 581.991031 
L 541.841265 578.564809 
L 652.933755 573.425478 
L 717.918696 552.86815 
L 764.026245 434.723089 
L 799.790039 411.46287 
L 829.011186 394.466037 
L 853.717314 380.95765 
L 875.118735 379.860776 
L 893.996127 366.255947 
L 910.882529 363.740828 
L 1021.975019 292.434401 
L 1086.95996 247.668587 
L 1133.06751 209.837408 
L 1168.831303 178.104438 
L 1198.052451 153.176045 
" clip-path="url(#pc4743e3971)" style="fill: none; stroke: #008000; stroke-width: 1.5; stroke-linecap: square"/>
   </g>
   <g id="LineCollection_1">
    <path d="M 172.8 472.351953 
L 172.8 77.651272 
" clip-path="url(#pc4743e3971)" style="fill: none; stroke: #000000; stroke-width: 1.5"/>
   </g>
   <g id="patch_3">
    <path d="M 172.8 609.4008 
L 172.8 82.1664 
" style="fill: none; stroke-dasharray: 8,8; stroke-dashoffset: 0; stroke: #000000; stroke-width: 0.8; stroke-linejoin: miter; stroke-linecap: square"/>
   </g>
   <g id="patch_4">
    <path d="M 1244.16 609.4008 
L 1244.16 82.1664 
" style="fill: none; stroke: #000000; stroke-width: 0.8; stroke-linejoin: miter; stroke-linecap: square"/>
   </g>
   <g id="patch_5">
    <path d="M 172.8 609.4008 
L 1244.16 609.4008 
" style="fill: none; stroke: #000000; stroke-width: 0.8; stroke-linejoin: miter; stroke-linecap: square"/>
   </g>
   <g id="patch_6">
    <path d="M 172.8 82.1664 
L 1244.16 82.1664 
" style="fill: none; stroke: #000000; stroke-width: 0.8; stroke-linejoin: miter; stroke-linecap: square"/>
   </g>
   <g id="text_11">
    <!-- Runtime of different solvers -->
    <g transform="translate(613.525875 76.1664)scale(0.168 -0.168)">
     <defs>
      <path id="STIXGeneral-Regular-52" d="M 4224 0 
L 3187 0 
L 1664 1971 
L 1306 1958 
L 1306 717 
Q 1306 352 1405 249 
Q 1504 147 1875 122 
L 1875 0 
L 109 0 
L 109 122 
Q 474 154 563 262 
Q 653 371 653 794 
L 653 3526 
Q 653 3885 563 3987 
Q 474 4090 109 4115 
L 109 4237 
L 1850 4237 
Q 2726 4237 3187 3859 
Q 3501 3603 3501 3091 
Q 3501 2221 2342 2042 
L 3622 422 
Q 3757 256 3878 198 
Q 4000 141 4224 122 
L 4224 0 
z
M 1306 3731 
L 1306 2195 
Q 1766 2202 1990 2246 
Q 2214 2291 2438 2413 
Q 2803 2618 2803 3142 
Q 2803 4000 1632 4000 
Q 1459 4000 1382 3945 
Q 1306 3891 1306 3731 
z
" transform="scale(0.015625)"/>
      <path id="STIXGeneral-Regular-75" d="M 3072 320 
L 3072 230 
Q 2573 96 2195 -58 
L 2163 -38 
L 2163 486 
L 2150 486 
Q 1747 -64 1235 -64 
Q 870 -64 662 160 
Q 454 384 454 755 
L 454 2362 
Q 454 2598 371 2688 
Q 288 2778 58 2790 
L 58 2880 
L 992 2880 
L 992 813 
Q 992 595 1123 451 
Q 1254 307 1446 307 
Q 1760 307 1984 506 
Q 2067 582 2099 649 
Q 2131 717 2131 877 
L 2131 2355 
Q 2131 2605 2041 2678 
Q 1952 2752 1658 2771 
L 1658 2880 
L 2669 2880 
L 2669 685 
Q 2669 461 2742 390 
Q 2816 320 3034 320 
L 3072 320 
z
" transform="scale(0.015625)"/>
      <path id="STIXGeneral-Regular-74" d="M 1702 493 
L 1786 422 
Q 1478 -64 1011 -64 
Q 448 -64 448 749 
L 448 2675 
L 109 2675 
Q 83 2694 83 2720 
Q 83 2771 192 2842 
Q 435 2982 813 3526 
Q 826 3546 874 3606 
Q 922 3667 941 3706 
Q 986 3706 986 3622 
L 986 2880 
L 1632 2880 
L 1632 2675 
L 986 2675 
L 986 845 
Q 986 538 1062 403 
Q 1139 269 1318 269 
Q 1510 269 1702 493 
z
" transform="scale(0.015625)"/>
      <path id="STIXGeneral-Regular-66" d="M 134 2880 
L 659 2880 
Q 666 3264 710 3478 
Q 755 3693 883 3910 
Q 1152 4371 1786 4371 
Q 2074 4371 2262 4259 
Q 2451 4147 2451 3974 
Q 2451 3866 2374 3789 
Q 2298 3712 2182 3712 
Q 2029 3712 1894 3942 
Q 1741 4192 1555 4192 
Q 1197 4192 1197 3622 
L 1197 2880 
L 1978 2880 
L 1978 2675 
L 1197 2675 
L 1197 666 
Q 1197 307 1299 208 
Q 1402 109 1792 96 
L 1792 0 
L 128 0 
L 128 96 
Q 474 115 566 214 
Q 659 314 659 666 
L 659 2675 
L 134 2675 
L 134 2880 
z
" transform="scale(0.015625)"/>
      <path id="STIXGeneral-Regular-72" d="M 1024 2931 
L 1024 2342 
Q 1267 2688 1430 2816 
Q 1594 2944 1792 2944 
Q 1958 2944 2051 2854 
Q 2144 2765 2144 2605 
Q 2144 2470 2077 2393 
Q 2010 2317 1894 2317 
Q 1773 2317 1638 2445 
Q 1536 2541 1472 2541 
Q 1338 2541 1181 2355 
Q 1024 2170 1024 2016 
L 1024 576 
Q 1024 301 1133 205 
Q 1242 109 1568 96 
L 1568 0 
L 32 0 
L 32 96 
Q 339 154 412 224 
Q 486 294 486 538 
L 486 2138 
Q 486 2349 438 2435 
Q 390 2522 269 2522 
Q 166 2522 45 2496 
L 45 2598 
Q 448 2726 992 2944 
L 1024 2931 
z
" transform="scale(0.015625)"/>
      <path id="STIXGeneral-Regular-6c" d="M 1645 0 
L 134 0 
L 134 96 
Q 435 122 531 221 
Q 627 320 627 589 
L 627 3590 
Q 627 3821 569 3910 
Q 512 4000 358 4000 
Q 224 4000 122 3987 
L 122 4090 
Q 730 4237 1133 4371 
L 1165 4346 
L 1165 557 
Q 1165 288 1254 201 
Q 1344 115 1645 96 
L 1645 0 
z
" transform="scale(0.015625)"/>
      <path id="STIXGeneral-Regular-76" d="M 3053 2880 
L 3053 2784 
Q 2906 2771 2835 2688 
Q 2765 2605 2637 2285 
L 1818 230 
Q 1690 -90 1638 -90 
Q 1587 -90 1523 77 
Q 1510 96 1497 141 
Q 1485 186 1472 211 
L 704 2048 
Q 499 2534 403 2652 
Q 307 2771 122 2784 
L 122 2880 
L 1376 2880 
L 1376 2784 
Q 1210 2771 1146 2732 
Q 1082 2694 1082 2611 
Q 1082 2509 1139 2368 
L 1792 730 
L 2426 2387 
Q 2464 2483 2464 2579 
Q 2464 2758 2163 2784 
L 2163 2880 
L 3053 2880 
z
" transform="scale(0.015625)"/>
     </defs>
     <use xlink:href="#STIXGeneral-Regular-52"/>
     <use xlink:href="#STIXGeneral-Regular-75" x="66.699997"/>
     <use xlink:href="#STIXGeneral-Regular-6e" x="116.699982"/>
     <use xlink:href="#STIXGeneral-Regular-74" x="166.699966"/>
     <use xlink:href="#STIXGeneral-Regular-69" x="194.499954"/>
     <use xlink:href="#STIXGeneral-Regular-6d" x="222.299942"/>
     <use xlink:href="#STIXGeneral-Regular-65" x="300.09993"/>
     <use xlink:href="#STIXGeneral-Regular-20" x="344.499924"/>
     <use xlink:href="#STIXGeneral-Regular-6f" x="369.499908"/>
     <use xlink:href="#STIXGeneral-Regular-66" x="419.499893"/>
     <use xlink:href="#STIXGeneral-Regular-20" x="452.799881"/>
     <use xlink:href="#STIXGeneral-Regular-64" x="477.799866"/>
     <use xlink:href="#STIXGeneral-Regular-69" x="527.79985"/>
     <use xlink:href="#STIXGeneral-Regular-66" x="555.599838"/>
     <use xlink:href="#STIXGeneral-Regular-66" x="588.899826"/>
     <use xlink:href="#STIXGeneral-Regular-65" x="622.199814"/>
     <use xlink:href="#STIXGeneral-Regular-72" x="666.599808"/>
     <use xlink:href="#STIXGeneral-Regular-65" x="699.899796"/>
     <use xlink:href="#STIXGeneral-Regular-6e" x="744.299789"/>
     <use xlink:href="#STIXGeneral-Regular-74" x="794.299774"/>
     <use xlink:href="#STIXGeneral-Regular-20" x="822.099762"/>
     <use xlink:href="#STIXGeneral-Regular-73" x="847.099747"/>
     <use xlink:href="#STIXGeneral-Regular-6f" x="885.999741"/>
     <use xlink:href="#STIXGeneral-Regular-6c" x="935.999725"/>
     <use xlink:href="#STIXGeneral-Regular-76" x="963.799713"/>
     <use xlink:href="#STIXGeneral-Regular-65" x="1013.799698"/>
     <use xlink:href="#STIXGeneral-Regular-72" x="1058.199692"/>
     <use xlink:href="#STIXGeneral-Regular-73" x="1091.49968"/>
    </g>
   </g>
   <g id="legend_1">
    <g id="patch_7">
     <path d="M 182.6 192.558587 
L 303.015312 192.558587 
Q 305.815313 192.558587 305.815313 189.758587 
L 305.815313 91.9664 
Q 305.815313 89.1664 303.015312 89.1664 
L 182.6 89.1664 
Q 179.8 89.1664 179.8 91.9664 
L 179.8 189.758587 
Q 179.8 192.558587 182.6 192.558587 
z
" style="fill: #ffffff; opacity: 0.8; stroke: #cccccc; stroke-linejoin: miter"/>
    </g>
    <g id="PathCollection_6">
     <g>
      <use xlink:href="#m7a5f70de90" x="199.4" y="100.8914" style="fill: #800080; stroke: #800080"/>
     </g>
    </g>
    <g id="text_12">
     <!-- Gau -->
     <g transform="translate(224.6 104.5664)scale(0.14 -0.14)">
      <defs>
       <path id="STIXGeneral-Regular-47" d="M 4538 2266 
L 4538 2150 
Q 4256 2125 4173 2035 
Q 4090 1946 4090 1638 
L 4090 358 
Q 3539 -90 2464 -90 
Q 1965 -90 1507 89 
Q 1050 269 736 595 
Q 205 1152 205 2093 
Q 205 3155 890 3776 
Q 1491 4326 2419 4326 
Q 2829 4326 3270 4179 
Q 3443 4115 3552 4115 
Q 3654 4115 3731 4176 
Q 3808 4237 3840 4326 
L 3981 4326 
L 4032 2976 
L 3885 2976 
Q 3680 3475 3430 3718 
Q 3059 4070 2496 4070 
Q 1856 4070 1427 3629 
Q 934 3136 934 2074 
Q 934 1190 1395 678 
Q 1856 166 2618 166 
Q 2982 166 3225 281 
Q 3469 397 3469 557 
L 3469 1562 
Q 3469 1933 3376 2025 
Q 3283 2118 2899 2150 
L 2899 2266 
L 4538 2266 
z
" transform="scale(0.015625)"/>
       <path id="STIXGeneral-Regular-61" d="M 2829 422 
L 2829 243 
Q 2586 -64 2253 -64 
Q 1888 -64 1843 403 
L 1837 403 
Q 1427 -64 909 -64 
Q 608 -64 422 112 
Q 237 288 237 602 
Q 237 1050 685 1350 
Q 992 1555 1837 1869 
L 1837 2214 
Q 1837 2502 1699 2646 
Q 1562 2790 1338 2790 
Q 1146 2790 1018 2697 
Q 890 2605 890 2477 
Q 890 2419 909 2348 
Q 928 2278 928 2208 
Q 928 2112 841 2029 
Q 755 1946 634 1946 
Q 525 1946 441 2029 
Q 358 2112 358 2240 
Q 358 2547 685 2752 
Q 986 2944 1421 2944 
Q 1939 2944 2176 2656 
Q 2291 2522 2323 2384 
Q 2355 2246 2355 1946 
L 2355 723 
Q 2355 301 2554 301 
Q 2682 301 2829 422 
z
M 1837 813 
L 1837 1715 
Q 1248 1510 1018 1293 
Q 800 1094 800 800 
Q 800 557 921 432 
Q 1043 307 1242 307 
Q 1453 307 1613 410 
Q 1747 506 1792 589 
Q 1837 672 1837 813 
z
" transform="scale(0.015625)"/>
       <path id="STIXGeneral-Regular-df" d="M 467 538 
L 467 2906 
Q 467 3648 745 4009 
Q 1024 4371 1606 4371 
Q 2106 4371 2400 4108 
Q 2694 3846 2694 3398 
Q 2694 3053 2512 2851 
Q 2330 2650 1818 2413 
Q 2342 2310 2598 2086 
Q 2995 1747 2995 1190 
Q 2995 659 2665 300 
Q 2336 -58 1850 -58 
Q 1574 -58 1401 73 
Q 1229 205 1229 410 
Q 1229 538 1312 627 
Q 1395 717 1517 717 
Q 1626 717 1702 643 
Q 1779 570 1786 461 
L 1798 320 
Q 1805 218 1849 173 
Q 1894 128 1984 128 
Q 2163 128 2240 243 
Q 2394 454 2394 960 
Q 2394 2253 1549 2285 
Q 1344 2291 1344 2394 
Q 1344 2470 1530 2490 
Q 2138 2554 2138 3302 
Q 2138 3725 1984 3961 
Q 1830 4198 1555 4198 
Q 1299 4198 1152 4012 
Q 1005 3827 1005 3514 
L 1005 0 
L 77 0 
L 77 96 
Q 320 115 393 198 
Q 467 282 467 538 
z
" transform="scale(0.015625)"/>
      </defs>
      <use xlink:href="#STIXGeneral-Regular-47"/>
      <use xlink:href="#STIXGeneral-Regular-61" x="72.199982"/>
      <use xlink:href="#STIXGeneral-Regular-75" x="116.599976"/>
      <use xlink:href="#STIXGeneral-Regular-df" x="166.59996"/>
     </g>
    </g>
    <g id="PathCollection_7">
     <g>
      <use xlink:href="#mabafb460eb" x="199.4" y="120.729837" style="fill: #ffa500; stroke: #ffa500"/>
     </g>
    </g>
    <g id="text_13">
     <!-- SD -->
     <g transform="translate(224.6 124.404837)scale(0.14 -0.14)">
      <defs>
       <path id="STIXGeneral-Regular-53" d="M 3002 2963 
L 2842 2963 
Q 2733 3360 2579 3565 
Q 2189 4064 1651 4064 
Q 1357 4064 1181 3894 
Q 1005 3725 1005 3456 
Q 1005 3328 1069 3206 
Q 1133 3085 1206 2998 
Q 1280 2912 1465 2784 
Q 1651 2656 1766 2589 
Q 1882 2522 2150 2362 
Q 2669 2061 2905 1763 
Q 3142 1466 3142 1107 
Q 3142 576 2771 243 
Q 2400 -90 1837 -90 
Q 1421 -90 1082 58 
Q 915 128 781 128 
Q 704 128 653 70 
Q 602 13 602 -83 
L 461 -83 
L 275 1274 
L 416 1274 
Q 845 141 1734 141 
Q 2074 141 2285 342 
Q 2496 544 2496 858 
Q 2496 1158 2310 1363 
Q 2003 1696 1235 2106 
Q 454 2522 454 3206 
Q 454 3718 768 4022 
Q 1082 4326 1568 4326 
Q 1907 4326 2240 4186 
Q 2413 4109 2522 4109 
Q 2688 4109 2726 4326 
L 2861 4326 
L 3002 2963 
z
" transform="scale(0.015625)"/>
       <path id="STIXGeneral-Regular-44" d="M 102 4237 
L 1830 4237 
Q 3078 4237 3750 3654 
Q 4384 3110 4384 2138 
Q 4384 966 3514 410 
Q 2880 0 1901 0 
L 102 0 
L 102 122 
Q 474 147 570 252 
Q 666 358 666 736 
L 666 3520 
Q 666 3891 570 3990 
Q 474 4090 102 4115 
L 102 4237 
z
M 1318 3731 
L 1318 538 
Q 1318 365 1379 301 
Q 1440 237 1626 237 
Q 2125 237 2432 307 
Q 2739 378 3021 570 
Q 3686 1018 3686 2099 
Q 3686 3027 3078 3558 
Q 2803 3802 2476 3901 
Q 2150 4000 1658 4000 
Q 1472 4000 1395 3942 
Q 1318 3885 1318 3731 
z
" transform="scale(0.015625)"/>
      </defs>
      <use xlink:href="#STIXGeneral-Regular-53"/>
      <use xlink:href="#STIXGeneral-Regular-44" x="55.599991"/>
     </g>
    </g>
    <g id="PathCollection_8">
     <g>
      <use xlink:href="#m6ab933ce72" x="199.4" y="140.568275" style="fill: #ff0000; stroke: #ff0000"/>
     </g>
    </g>
    <g id="text_14">
     <!-- CG -->
     <g transform="translate(224.6 144.243275)scale(0.14 -0.14)">
      <defs>
       <path id="STIXGeneral-Regular-43" d="M 3930 838 
L 4051 723 
Q 3482 -90 2304 -90 
Q 1376 -90 794 480 
Q 179 1082 179 2080 
Q 179 3014 755 3661 
Q 1357 4326 2310 4326 
Q 2720 4326 3072 4230 
Q 3475 4115 3514 4115 
Q 3725 4115 3782 4326 
L 3910 4326 
L 3968 2874 
L 3821 2874 
Q 3718 3334 3488 3584 
Q 3034 4070 2458 4070 
Q 1747 4070 1334 3548 
Q 922 3027 922 2182 
Q 922 1152 1382 653 
Q 1811 192 2522 192 
Q 2944 192 3251 339 
Q 3558 486 3930 838 
z
" transform="scale(0.015625)"/>
      </defs>
      <use xlink:href="#STIXGeneral-Regular-43"/>
      <use xlink:href="#STIXGeneral-Regular-47" x="66.699997"/>
     </g>
    </g>
    <g id="PathCollection_9">
     <g>
      <use xlink:href="#mf3a16f23e5" x="199.4" y="160.406712" style="fill: #0000ff; stroke: #0000ff"/>
     </g>
    </g>
    <g id="text_15">
     <!-- PCG (Jacobi) -->
     <g transform="translate(224.6 164.081712)scale(0.14 -0.14)">
      <defs>
       <path id="STIXGeneral-Regular-50" d="M 102 4237 
L 1760 4237 
Q 2669 4237 3149 3834 
Q 3469 3565 3469 3072 
Q 3469 2560 3104 2234 
Q 2835 1990 2553 1916 
Q 2272 1843 1734 1843 
Q 1549 1843 1293 1862 
L 1293 717 
Q 1293 352 1398 246 
Q 1504 141 1894 122 
L 1894 0 
L 102 0 
L 102 122 
Q 474 147 557 256 
Q 640 365 640 781 
L 640 3526 
Q 640 3885 547 3987 
Q 454 4090 102 4115 
L 102 4237 
z
M 1293 3770 
L 1293 2118 
Q 1510 2099 1683 2099 
Q 2202 2099 2486 2352 
Q 2771 2605 2771 3040 
Q 2771 3558 2476 3779 
Q 2182 4000 1517 4000 
Q 1382 4000 1337 3952 
Q 1293 3904 1293 3770 
z
" transform="scale(0.015625)"/>
       <path id="STIXGeneral-Regular-28" d="M 1946 -1030 
L 1869 -1133 
Q 1126 -710 716 32 
Q 307 774 307 1613 
Q 307 3386 1888 4326 
L 1946 4224 
Q 1293 3667 1075 3126 
Q 858 2586 858 1632 
Q 858 685 1082 96 
Q 1306 -493 1946 -1030 
z
" transform="scale(0.015625)"/>
       <path id="STIXGeneral-Regular-4a" d="M 2266 4237 
L 2266 4115 
Q 1875 4083 1776 3984 
Q 1677 3885 1677 3514 
L 1677 1184 
Q 1677 -90 608 -90 
Q 314 -90 138 32 
Q -38 154 -38 371 
Q -38 499 54 601 
Q 147 704 275 704 
Q 486 704 589 435 
Q 602 403 621 348 
Q 640 294 649 265 
Q 659 237 678 208 
Q 698 179 723 166 
Q 749 154 787 154 
Q 928 154 976 253 
Q 1024 352 1024 602 
L 1024 3520 
Q 1024 3898 928 3990 
Q 832 4083 429 4115 
L 429 4237 
L 2266 4237 
z
" transform="scale(0.015625)"/>
       <path id="STIXGeneral-Regular-62" d="M 979 4358 
L 979 2406 
Q 1082 2650 1315 2797 
Q 1549 2944 1843 2944 
Q 2349 2944 2672 2541 
Q 2995 2138 2995 1536 
Q 2995 832 2566 384 
Q 2138 -64 1498 -64 
Q 1107 -64 774 67 
Q 442 198 442 358 
L 442 3622 
Q 442 3859 384 3926 
Q 326 3994 128 3994 
Q 83 3994 19 3981 
L 19 4090 
L 211 4147 
Q 864 4346 947 4371 
L 979 4358 
z
M 979 2035 
L 979 474 
Q 979 326 1161 233 
Q 1344 141 1600 141 
Q 1978 141 2195 416 
Q 2432 710 2432 1261 
Q 2432 1888 2182 2240 
Q 1971 2541 1613 2541 
Q 1357 2541 1168 2390 
Q 979 2240 979 2035 
z
" transform="scale(0.015625)"/>
       <path id="STIXGeneral-Regular-29" d="M 186 4224 
L 262 4326 
Q 992 3891 1408 3148 
Q 1824 2406 1824 1581 
Q 1824 -166 243 -1133 
L 186 -1030 
Q 845 -486 1059 54 
Q 1274 595 1274 1562 
Q 1274 2534 1059 3120 
Q 845 3706 186 4224 
z
" transform="scale(0.015625)"/>
      </defs>
      <use xlink:href="#STIXGeneral-Regular-50"/>
      <use xlink:href="#STIXGeneral-Regular-43" x="55.699997"/>
      <use xlink:href="#STIXGeneral-Regular-47" x="122.399994"/>
      <use xlink:href="#STIXGeneral-Regular-20" x="194.599976"/>
      <use xlink:href="#STIXGeneral-Regular-28" x="219.59996"/>
      <use xlink:href="#STIXGeneral-Regular-4a" x="252.899948"/>
      <use xlink:href="#STIXGeneral-Regular-61" x="290.199936"/>
      <use xlink:href="#STIXGeneral-Regular-63" x="334.59993"/>
      <use xlink:href="#STIXGeneral-Regular-6f" x="378.999924"/>
      <use xlink:href="#STIXGeneral-Regular-62" x="428.999908"/>
      <use xlink:href="#STIXGeneral-Regular-69" x="478.999893"/>
      <use xlink:href="#STIXGeneral-Regular-29" x="506.799881"/>
     </g>
    </g>
    <g id="PathCollection_10">
     <g>
      <use xlink:href="#m6adeedf694" x="199.4" y="180.24515" style="fill: #008000; stroke: #008000"/>
     </g>
    </g>
    <g id="text_16">
     <!-- ICCG(0) -->
     <g transform="translate(224.6 183.92015)scale(0.14 -0.14)">
      <defs>
       <path id="STIXGeneral-Regular-49" d="M 2016 0 
L 115 0 
L 115 122 
Q 518 134 627 240 
Q 736 346 736 717 
L 736 3526 
Q 736 3898 633 3994 
Q 531 4090 115 4115 
L 115 4237 
L 2016 4237 
L 2016 4115 
Q 1613 4096 1501 3993 
Q 1389 3891 1389 3526 
L 1389 717 
Q 1389 358 1504 246 
Q 1619 134 2016 122 
L 2016 0 
z
" transform="scale(0.015625)"/>
      </defs>
      <use xlink:href="#STIXGeneral-Regular-49"/>
      <use xlink:href="#STIXGeneral-Regular-43" x="33.299988"/>
      <use xlink:href="#STIXGeneral-Regular-43" x="99.999985"/>
      <use xlink:href="#STIXGeneral-Regular-47" x="166.699982"/>
      <use xlink:href="#STIXGeneral-Regular-28" x="238.899963"/>
      <use xlink:href="#STIXGeneral-Regular-30" x="272.199951"/>
      <use xlink:href="#STIXGeneral-Regular-29" x="322.199936"/>
     </g>
    </g>
   </g>
  </g>
 </g>
 <defs>
  <clipPath id="pc4743e3971">
   <rect x="172.8" y="82.1664" width="1071.36" height="527.2344"/>
  </clipPath>
 </defs>
</svg>
